<?xml version="1.0"?>
<svg xmlns="http://www.w3.org/2000/svg" viewBox="0 0 64 64" width="512" height="512"><g id="outline"><path d="M32,2A30,30,0,1,0,62,32,30.034,30.034,0,0,0,32,2Zm0,2A27.855,27.855,0,0,1,48.76,9.584L39,19.344V9a3,3,0,0,0-3-3H28a3,3,0,0,0-3,3V33a2.785,2.785,0,0,0,.027.317l-2,2A2.869,2.869,0,0,1,23,35V29a3,3,0,0,0-3-3,3.015,3.015,0,0,0-3,3v6a9.019,9.019,0,0,0,1.454,4.89l-8.87,8.87A27.986,27.986,0,0,1,32,4ZM27,31.344V9a1,1,0,0,1,1-1h8a1,1,0,0,1,1,1V21.344Zm-7.091,7.09A7,7,0,0,1,19,35V29a.977.977,0,0,1,.307-.713A.959.959,0,0,1,20,28a1,1,0,0,1,1,1v6a4.987,4.987,0,0,0,.4,1.943ZM10.852,50.32,50.32,10.852a28.382,28.382,0,0,1,2.828,2.828L13.68,53.148A28.382,28.382,0,0,1,10.852,50.32ZM33,50H31V44h2Zm6,2a1,1,0,0,1,0,2H25a1,1,0,0,1,0-2ZM27.656,42l2-2H38a5.006,5.006,0,0,0,5-5V29a.977.977,0,0,1,.307-.713A.959.959,0,0,1,44,28a1,1,0,0,1,1,1v6a7.009,7.009,0,0,1-7,7ZM41,29v6a3,3,0,0,1-3,3H31.656l2-2H36a3,3,0,0,0,3-3V30.656l2.037-2.037A3,3,0,0,0,41,29Zm-5.344,5L37,32.656V33a1,1,0,0,1-1,1ZM32,60a27.855,27.855,0,0,1-16.76-5.584l10.43-10.43c.11,0,.217.014.33.014h3v6H25a3,3,0,0,0,0,6H39a3,3,0,0,0,0-6H35V44h3a9.01,9.01,0,0,0,9-9V29a2.911,2.911,0,0,0-3.381-2.963l10.8-10.8A27.986,27.986,0,0,1,32,60Z"/><path d="M58,31.917,56,32.083c.94,11.3-10.489,20.03-10.6,20.117l1.2,1.6C47.108,53.419,59.03,44.325,58,31.917Z"/><rect x="56" y="28" width="2" height="2"/></g></svg>
